<svg xmlns="http://www.w3.org/2000/svg" width="25" height="24.875" viewBox="0 0 25 24.875">
  <path d="M503.821,397.586a6.857,6.857,0,0,0-13.3-.843c-0.1-.008-0.2-0.013-0.305-0.013a3.644,3.644,0,0,0-3.017,1.608,4.409,4.409,0,0,0,.194,8.815h5.645v2.406a3.993,3.993,0,0,0-1.613,3.235,4.053,4.053,0,0,0,3.918,3.979l0.116,0a4.017,4.017,0,0,0,2.81-1.135,3.994,3.994,0,0,0-.392-6.081v-2.406h5.241A4.807,4.807,0,0,0,503.821,397.586Zm-5.14,15.18a3.216,3.216,0,0,1-3.318,3.2,3.24,3.24,0,0,1-3.133-3.182,3.2,3.2,0,0,1,1.434-2.69l0.179-.119v-8.84a1.613,1.613,0,0,1,3.225,0v8.84l0.179,0.119A3.2,3.2,0,0,1,498.681,412.766Zm-3.226-14.032a2.415,2.415,0,0,0-2.419,2.406v5.211h-5.645a3.608,3.608,0,1,1-.016-7.216l0.279,0,0.117-.2a2.835,2.835,0,0,1,2.443-1.405,2.919,2.919,0,0,1,.525.05l0.374,0.07,0.092-.367a6.047,6.047,0,0,1,11.861.714l0.029,0.23c0.013,0.166.021,0.335,0.021,0.5a6.029,6.029,0,0,1-5.241,5.954V401.14A2.415,2.415,0,0,0,495.455,398.734Zm7.661,7.617h-5.241V405.5a6.837,6.837,0,0,0,6.048-6.764c0-.106-0.009-0.21-0.014-0.315A4,4,0,0,1,503.116,406.351Zm-7.257,4.045v-7.653h-0.807V410.4A2.42,2.42,0,1,0,495.859,410.4Zm-0.4,3.973a1.6,1.6,0,1,1,1.613-1.6A1.609,1.609,0,0,1,495.455,414.369Zm-0.4-13.229h0.807v0.8h-0.807v-0.8Z" transform="translate(-482.969 -391.906)"/>
</svg>
