<svg xmlns="http://www.w3.org/2000/svg" width="23" height="22.843" viewBox="0 0 23 22.843">
  <path d="M692.44,412.754l-2.211-2.2a0.305,0.305,0,0,1,0-.433,1.082,1.082,0,0,0,0-1.534L675.056,393.5a2.019,2.019,0,0,0-2.842,0l-1.658,1.649a1.991,1.991,0,0,0,0,2.827l3.264,3.247a0.492,0.492,0,0,0,.037.056,0.347,0.347,0,0,0,.057.037l2.544,2.53a0.325,0.325,0,0,0,.036.055,0.387,0.387,0,0,0,.056.037l2.544,2.53a0.417,0.417,0,0,0,.037.056,0.492,0.492,0,0,0,.056.037l2.545,2.53a0.29,0.29,0,0,0,.036.055,0.492,0.492,0,0,0,.056.037l2.215,2.2a0.4,0.4,0,0,0,.037.054,0.407,0.407,0,0,0,.055.037l1.6,1.588a1.12,1.12,0,0,0,1.543,0,0.312,0.312,0,0,1,.435,0l2.211,2.2a1.793,1.793,0,0,0,2.523,0A1.767,1.767,0,0,0,692.44,412.754Zm-4.951-.56a1.093,1.093,0,0,0-.772.317,0.315,0.315,0,0,1-.435,0l-1.366-1.359,0.7-.7a0.386,0.386,0,0,0,0-.551,0.392,0.392,0,0,0-.554,0l-0.7.7-1.754-1.744,0.7-.7a0.391,0.391,0,0,0-.554-0.551l-0.7.7-2.083-2.071,0.7-.7a0.391,0.391,0,0,0-.554-0.551l-0.7.7-2.083-2.072,0.7-.7a0.388,0.388,0,0,0,0-.551,0.394,0.394,0,0,0-.554,0l-0.7.7-2.083-2.072,0.7-.7a0.388,0.388,0,0,0,0-.551,0.394,0.394,0,0,0-.554,0l-0.7.7-3.033-3.017a1.216,1.216,0,0,1,0-1.725l1.658-1.649a1.233,1.233,0,0,1,1.734,0l3.034,3.018-0.712.707a0.388,0.388,0,0,0,0,.551,0.391,0.391,0,0,0,.554,0l0.712-.707,2.083,2.071-0.712.709a0.388,0.388,0,0,0,0,.551,0.394,0.394,0,0,0,.554,0l0.712-.708,2.083,2.071-0.712.708a0.388,0.388,0,0,0,0,.551,0.391,0.391,0,0,0,.554,0l0.712-.708,2.083,2.072-0.712.708a0.388,0.388,0,0,0,0,.551,0.394,0.394,0,0,0,.554,0l0.712-.708,1.754,1.744-0.712.708a0.391,0.391,0,0,0,.554.551l0.712-.708,1.366,1.359a0.306,0.306,0,0,1,0,.432,1.08,1.08,0,0,0,0,1.535l0.567,0.565-1.4,1.392s-0.007.012-.012,0.017l-0.571-.568A1.093,1.093,0,0,0,687.489,412.194Zm4.4,2.517a1,1,0,0,1-1.414,0l-1.093-1.087a0.108,0.108,0,0,0,.018-0.011l1.4-1.392,1.09,1.083A0.991,0.991,0,0,1,691.886,414.711Zm-18.963-19.4a0.394,0.394,0,0,0-.554,0,0.388,0.388,0,0,0,0,.551l13.844,13.77a0.391,0.391,0,1,0,.554-0.552Z" transform="translate(-669.969 -392.938)"/>
</svg>
