<svg xmlns="http://www.w3.org/2000/svg" width="18" height="24.875" viewBox="0 0 18 24.875">
  <path d="M592.5,407.176v-0.825h-0.818v1.281l0.2,0.116a4.41,4.41,0,0,1,2.25,3.815,4.333,4.333,0,0,1-1.379,3.177,4.521,4.521,0,0,1-7.619-3.074,4.394,4.394,0,0,1,2.249-3.918l0.2-.116V394.725a2.046,2.046,0,0,1,4.091,0v2.806H592.5v-2.806a2.864,2.864,0,0,0-5.727,0v12.451a5.188,5.188,0,0,0-2.454,4.508,5.336,5.336,0,0,0,5.109,5.087c0.071,0,.141,0,0.21,0a5.334,5.334,0,0,0,3.686-1.457,5.117,5.117,0,0,0,1.63-3.755A5.2,5.2,0,0,0,592.5,407.176Zm-2.864-13.653a1.216,1.216,0,0,0-1.227,1.2v13.438a3.586,3.586,0,0,0-2.395,4.057,3.626,3.626,0,0,0,2.885,2.88,3.857,3.857,0,0,0,.731.069,3.722,3.722,0,0,0,2.346-.821,3.567,3.567,0,0,0,1.342-2.785,3.61,3.61,0,0,0-2.454-3.4V394.725A1.217,1.217,0,0,0,589.635,393.523Zm2.864,18.04a2.778,2.778,0,0,1-1.045,2.167,2.932,2.932,0,0,1-2.4.583,2.793,2.793,0,0,1-.135-5.464l0.307-.078V394.725a0.409,0.409,0,0,1,.818,0v14.046l0.307,0.078A2.813,2.813,0,0,1,592.5,411.563Zm-0.818-6.816h2.454v0.8h-2.454v-0.8Zm0-1.6h2.454v0.8h-2.454v-0.8Zm0-1.6h2.454v0.8h-2.454v-0.8Zm0-1.6h2.454v0.8h-2.454v-0.8Zm0-1.6h2.454v0.8h-2.454v-0.8Zm-10.227-4.41a2.406,2.406,0,1,0,2.454,2.406A2.433,2.433,0,0,0,581.454,393.923Zm0,4.009a1.6,1.6,0,1,1,1.636-1.6A1.622,1.622,0,0,1,581.454,397.932Zm-0.409-6.013h0.818v1.2h-0.818v-1.2Zm-2.484,1.008,0.867,0.85-0.578.567-0.868-.85Zm-1.607,3h1.227v0.8h-1.227v-0.8Zm1.607,3.8-0.579-.567,0.868-.851,0.579,0.567Zm2.484-.195h0.818v1.2h-0.818v-1.2Zm3.012-1.223,0.868,0.851-0.579.567-0.867-.851Zm0.669-2.385h1.228v0.8h-1.228v-0.8Zm-0.38-3,0.579,0.567-0.868.851-0.578-.567Z" transform="translate(-576.969 -391.906)"/>
</svg>
