<?xml version="1.0" encoding="UTF-8"?>
<svg width="41px" height="41px" viewBox="0 0 41 41" version="1.1" xmlns="http://www.w3.org/2000/svg" xmlns:xlink="http://www.w3.org/1999/xlink">
    <g id="Page-1" stroke="none" stroke-width="1" fill="none" fill-rule="evenodd">
        <g id="plus" fill="#F14921">
            <path d="M20.5,41 C9.17816263,41 0,31.8218374 0,20.5 C0,9.17816263 9.17816263,0 20.5,0 C31.8218374,0 41,9.17816263 41,20.5 C40.9856754,31.8158986 31.8158986,40.9856754 20.5,41 Z M20.5,2.342 C10.4725565,2.34365679 2.34489563,10.4735561 2.34600011,20.5009997 C2.34710459,30.5284433 10.4765562,38.6565519 20.5039998,38.6559997 C30.5314435,38.6554476 38.66,30.5264436 38.66,20.499 C38.6462254,10.475706 30.5232961,2.35411861 20.5,2.342 L20.5,2.342 Z M20.5,11.246 C21.1461732,11.246 21.6700069,11.7698268 21.6700069,12.416 L21.6697692,19.326 L28.58,19.327 C29.2136775,19.3455158 29.7177692,19.8645521 29.7177692,20.4985 C29.7177692,21.1324479 29.2136775,21.6514842 28.58,21.67 L21.6697692,21.669 L21.6700069,28.582 C21.6710661,28.8927207 21.548173,29.1910371 21.3285529,29.4108449 C21.1089328,29.6306527 20.8107215,29.7538006 20.5,29.7530039 C20.1893602,29.7535329 19.8913047,29.6302992 19.6717427,29.4105496 C19.4521807,29.1907999 19.3292017,28.8926392 19.3299961,28.582 L19.3297692,21.669 L12.42,21.67 C11.993302,21.682468 11.593571,21.4619483 11.3765414,21.0943551 C11.1595118,20.7267618 11.1595118,20.2702382 11.3765414,19.9026449 C11.593571,19.5350517 11.993302,19.314532 12.42,19.327 L19.3297692,19.326 L19.3299961,12.416 C19.3299961,11.7698268 19.8538268,11.246 20.5,11.246 Z" id="Forma_1"></path>
        </g>
    </g>
</svg>
